<?xml version="1.0" encoding="UTF-8"?>
<svg id="Layer_1" data-name="Layer 1" xmlns="http://www.w3.org/2000/svg" version="1.1" viewBox="0 0 45.9 52.8">
  <defs>
    <style>
      .cls-1 {
        fill: #fff;
        stroke-width: 0px;
      }
    </style>
  </defs>
  <path class="cls-1" d="M23,52.8c-.2,0-.3,0-.5,0C-4.9,42,.4,7.6.5,7.2c0-.5.5-1,1-1.1L22.6,0c.3,0,.5,0,.8,0l21.1,6c.5.2.9.6,1,1.1,0,.3,5.4,34.8-21.9,45.5-.2,0-.3,0-.5,0ZM3.2,8.6c-.6,5.2-2.6,32.2,19.8,41.4,22.4-9.2,20.4-36.2,19.8-41.4L23,2.9,3.2,8.6Z"/>
  <path class="cls-1" d="M23,7.3L6.8,11.9s-4.3,25.7,16.1,33.7c20.4-8,16.1-33.7,16.1-33.7l-16.1-4.6ZM16.7,30c-2.7,0-4.6-.9-5.9-2.2l1.6-2.3c1,1,2.5,1.9,4.5,1.9s2.4-.8,2.4-1.6-1.2-1.4-2.8-1.8c-2.3-.5-5.2-1.2-5.2-4.3s2-4.2,5.3-4.2,4.1.7,5.5,2l-1.7,2.2c-1.1-1-2.6-1.5-4-1.5s-2.1.6-2.1,1.4,1.2,1.2,2.8,1.6c2.3.5,5.2,1.2,5.2,4.3s-1.8,4.5-5.6,4.5ZM34.5,29.7h-10.5v-2.4c5.7-4.2,7.4-5.7,7.4-7.4s-1.1-1.8-2.3-1.8-2.8.6-3.7,1.6l-1.7-2c1.4-1.6,3.4-2.3,5.4-2.3,3,0,5.4,1.7,5.4,4.5s-2,4.5-5.7,7.1h5.8v2.6Z"/>
</svg>