<?xml version="1.0" encoding="UTF-8"?>
<svg id="Layer_1" data-name="Layer 1" xmlns="http://www.w3.org/2000/svg" version="1.1" viewBox="0 0 34.1 39.5">
  <defs>
    <style>
      .cls-1 {
        isolation: isolate;
      }

      .cls-2 {
        fill: #fff;
        stroke-width: 0px;
      }
    </style>
  </defs>
  <g class="cls-1">
    <g class="cls-1">
      <path class="cls-2" d="M6.5,18.8c1,1,2.5,1.9,4.5,1.9s2.4-.8,2.4-1.6-1.2-1.4-2.8-1.8c-2.3-.5-5.2-1.2-5.2-4.3s2-4.2,5.3-4.2,4.1.7,5.5,2l-1.7,2.2c-1.1-1-2.6-1.5-4-1.5s-2.1.6-2.1,1.4,1.2,1.2,2.8,1.6c2.3.5,5.2,1.2,5.2,4.3s-1.8,4.5-5.6,4.5-4.6-.9-5.9-2.2l1.6-2.3Z"/>
      <path class="cls-2" d="M24.2,8.8c1.7,0,3.1.6,4.1,1.4l-1.3,2.2c-.8-.7-1.6-1.1-2.8-1.1-2.1,0-3.5,1.8-3.5,4.1s0,.2,0,.3c.7-.9,2.1-1.8,3.6-1.8,2.5,0,4.8,1.5,4.8,4.5s-2.2,4.8-5.4,4.8-6-3.3-6-7.2,2.4-7.2,6.5-7.2ZM23.5,16.4c-1,0-2.1.5-2.7,1.3.1,1.3.9,2.9,2.9,2.9s2.5-1.1,2.5-2.1c0-1.5-1.2-2.2-2.6-2.2Z"/>
    </g>
  </g>
  <path class="cls-2" d="M17,39.5h-.2C-3.7,31.3.3,5.4.4,5.1v-.3S17,0,17,0h.1l16.5,4.8v.3c0,.3,4.2,26.2-16.4,34.3h-.2,0ZM1.4,5.6c-.4,3-2.7,25.4,15.7,32.7,18.3-7.3,16.1-29.7,15.7-32.7L17,1.1,1.4,5.6Z"/>
</svg>