<?xml version="1.0" encoding="UTF-8" standalone="no"?>
<svg
   version="1.1"
   id="svg2"
   viewBox="0 0 968.32001 109.76" sodipodi:docname="brandsafwaylogo.svg"
   xmlns:inkscape="http://www.inkscape.org/namespaces/inkscape"
   xmlns:sodipodi="http://sodipodi.sourceforge.net/DTD/sodipodi-0.dtd"
   xmlns="http://www.w3.org/2000/svg"
   xmlns:svg="http://www.w3.org/2000/svg">
   <defs
      id="defs6" />
   <sodipodi:namedview
      id="namedview4"
      pagecolor="#ffffff"
      bordercolor="#000000"
      borderopacity="0.25"
      inkscape:showpageshadow="2"
      inkscape:pageopacity="0.0"
      inkscape:pagecheckerboard="0"
      inkscape:deskcolor="#d1d1d1" />
   <g
      id="g8"
      inkscape:groupmode="layer"
      inkscape:label="ink_ext_XXXXXX"
      transform="matrix(1.3333333,0,0,-1.3333333,0,109.50667)">
      <g
         id="g10"
         transform="scale(0.1)">
         <path
            d="m 3237.52,69.6563 213.94,370.4567 -219.2,381.188 H 3128.65 L 3347.49,440.707 3092.98,0 h 23.87 55.28 4087.89 v 69.6563 h -4022.5"
            style="fill:#efa20f;fill-opacity:1;fill-rule:nonzero;stroke:none"
            id="path12" />
         <path
            d="m 391.859,299.578 c -8.414,-3.199 -13.406,-4.012 -39.746,-4.012 H 121.559 v 98.196 h 227.382 c 28.715,0 33.817,-0.813 41.629,-4.004 14.496,-6.504 22.457,-22.785 22.457,-45.879 0,-22.348 -7.711,-38.496 -21.168,-44.301 z m -270.3,287.863 H 335.09 c 23.996,0 31.039,-0.703 39.676,-3.988 14.742,-6.613 23.144,-22.762 23.144,-44.32 0,-18.035 -6.234,-32.707 -17.109,-40.254 -8.891,-5.078 -18.414,-6.52 -42.563,-6.52 H 121.559 Z m 342.41,-141.718 -6.879,1.601 6.879,1.625 c 39.14,9.199 57.375,44.278 57.375,110.399 0,64.871 -13.668,100.078 -47.168,121.511 -22.09,13.246 -49.074,18.418 -96.207,18.418 H 0 V 183.73 h 395.613 c 47.789,0 75.293,5.11 94.969,17.625 32.598,21.25 47.781,61.606 47.781,126.965 0,74.825 -18.777,104.45 -74.394,117.403"
            style="fill:#87212a;fill-opacity:1;fill-rule:nonzero;stroke:none"
            id="path14" />
         <path
            d="m 1427.07,381.121 0.99,2.309 91.06,210.386 1.51,-3.472 91.84,-209.223 z m 8.62,318.156 -234.96,-515.547 h 141.37 l 40.36,92.559 h 273.3 l 0.44,-0.969 41.18,-91.59 h 136.39 l -228.7,515.547 h -169.38"
            style="fill:#87212a;fill-opacity:1;fill-rule:nonzero;stroke:none"
            id="path16" />
         <path
            d="m 2329.33,300.867 -3.09,4.77 -254.23,393.64 H 1870.87 V 183.73 h 119.66 l -3.21,394.536 253.57,-394.536 h 203.03 v 515.547 h -117.76 l 3.17,-398.41"
            style="fill:#87212a;fill-opacity:1;fill-rule:nonzero;stroke:none"
            id="path18" />
         <path
            d="m 2946.18,310.438 c -15.37,-6.329 -18.21,-6.329 -52.91,-6.329 h -216.06 v 269.329 h 218.57 c 74.48,0 90.55,-23.637 90.55,-133.11 0,-90.074 -8.62,-117.992 -40.15,-129.89 z m 162.98,215.386 c -4.44,66.36 -13.73,98.114 -36.82,125.797 -28.52,35.188 -69.94,47.656 -158.27,47.656 H 2552.51 V 183.73 h 378.59 c 45.13,0 63.88,1.661 87.23,7.735 45.29,10.715 80.25,58.894 87.05,119.93 3.71,28.957 6.3,82.293 6.3,129.718 0,25.227 -1.27,60.727 -2.52,84.711"
            style="fill:#87212a;fill-opacity:1;fill-rule:nonzero;stroke:none"
            id="path20" />
         <path
            d="m 987.504,485.961 c -25.785,-4.883 -51.434,-7.617 -76.215,-8.156 -23.687,-0.516 -47.613,-0.664 -71.351,-0.664 -16.508,0 -32.926,0.082 -49.133,0.148 -15.2,0.059 -57.274,0.09 -57.274,0.09 V 600.84 h 1.645 c 19.414,0 38.754,0.043 58.027,0.094 52.5,0.14 106.781,0.257 159.938,-0.629 16.238,-0.278 32.964,-4.52 47.929,-11.657 18.45,-8.804 32.35,-30.175 30.23,-51.953 -2.69,-27.484 -18.65,-45.98 -43.796,-50.734 z m 28.796,-97.398 2.48,0.597 c 1.93,0.469 3.67,0.899 5.28,1.309 3.01,0.738 5.58,1.383 8.19,1.933 43.02,9.137 75.33,31.559 96.02,66.645 23.35,39.574 21.79,82.012 16.62,121.984 -5.94,46.063 -30.15,77.907 -74.01,97.324 -26.96,11.95 -57.7,18.008 -93.942,18.536 -81.719,1.179 -164.829,1.464 -245.2,1.73 -34.961,0.117 -69.922,0.246 -104.886,0.438 -3.407,0.035 -8.778,-0.051 -11.43,-0.082 -0.047,-2.649 -0.117,-7.938 -0.035,-11.122 0.199,-6.855 0.183,-13.8 0.176,-20.519 L 615.41,201.785 c 0,-6.89 0.188,-14.461 0.27,-17.691 l 116.843,-0.188 c 0.071,3.438 0.219,11.524 0.172,16.028 -0.422,39.968 -0.386,80.601 -0.347,119.91 0.011,14.773 0.035,29.57 0.019,44.344 l -0.008,9.699 0.008,8.015 143.77,-0.172 c 0,0 57.078,-77.453 80.511,-108.292 19.579,-25.762 39.168,-51.543 58.612,-77.403 2.74,-3.652 7.3,-9.98 8.81,-12.058 l 145.83,-0.286 c -16.47,22.079 -130.32,174.778 -152.04,202.864 l -1.56,2.008"
            style="fill:#87212a;fill-opacity:1;fill-rule:nonzero;stroke:none"
            id="path22" />
         <path
            d="m 3625.59,375.371 h 128.66 c 0.6,-54.734 18.52,-59.043 55.62,-59.043 h 157.6 c 27.27,0 55.06,3.535 55.06,43.43 0,44.82 -15.04,47.613 -180.8,47.613 -193.51,0 -215.56,28.481 -215.56,155.203 0,93.223 7,165.082 169.19,165.082 h 179.68 c 148.31,0 162.22,-61.914 162.22,-152.336 v -16.375 h -128.61 c 0,37.774 -3.52,53.465 -62.61,53.465 h -142.55 c -28.94,0 -48.64,-12.191 -48.64,-39.855 0,-44.899 15.58,-46.317 153.52,-45.559 199.92,0.66 246.29,-14.226 246.29,-164.398 0,-138.743 -38.25,-161.543 -209.2,-161.543 h -155.89 c -117.05,0 -163.98,27.082 -163.98,138.75 v 35.566"
            style="fill:#211d1d;fill-opacity:1;fill-rule:nonzero;stroke:none"
            id="path24" />
         <path
            d="m 4422.28,408.84 h 164.58 l -83.45,193.582 z m -2.34,313.09 h 167.52 l 230.59,-515.2 h -143.11 l -39.99,91.083 h -260.73 l -37.68,-91.083 h -143.75 l 227.15,515.2"
            style="fill:#211d1d;fill-opacity:1;fill-rule:nonzero;stroke:none"
            id="path26" />
         <path
            d="m 4886.98,721.93 h 438.05 V 598.141 h -309.39 v -96.09 h 294.9 V 382.52 h -294.9 V 206.73 h -128.66 v 515.2"
            style="fill:#211d1d;fill-opacity:1;fill-rule:nonzero;stroke:none"
            id="path28" />
         <path
            d="m 5386.37,721.93 h 125.76 l 89.22,-378.551 h 1.18 l 106.59,378.551 h 119.38 l 106.64,-378.551 h 1.14 l 89.28,378.551 h 125.69 L 6015.1,206.73 h -147.78 l -97.93,340.2 h -1.17 l -97.91,-340.2 h -147.75 l -136.19,515.2"
            style="fill:#211d1d;fill-opacity:1;fill-rule:nonzero;stroke:none"
            id="path30" />
         <path
            d="m 6352.31,408.84 h 164.56 l -83.45,193.582 z m -2.32,313.09 h 167.46 l 230.61,-515.2 h -143.08 l -40,91.083 h -260.74 l -37.68,-91.083 h -143.77 l 227.2,515.2"
            style="fill:#211d1d;fill-opacity:1;fill-rule:nonzero;stroke:none"
            id="path32" />
         <path
            d="M 6882.5,386.105 6650.12,721.93 h 155.3 l 141.37,-210.602 141.39,210.602 h 155.34 L 7011.15,386.105 V 206.73 H 6882.5 v 179.375"
            style="fill:#211d1d;fill-opacity:1;fill-rule:nonzero;stroke:none"
            id="path34" />
         <path
            d="m 7180.39,260.02 h 6.29 c 7.36,0 13.31,2.453 13.31,8.398 0,5.254 -3.85,8.75 -12.25,8.75 -3.51,0 -5.96,-0.344 -7.35,-0.691 z m -0.36,-32.207 h -13.3 v 57.414 c 5.26,0.703 12.61,1.746 22.05,1.746 10.85,0 15.76,-1.746 19.61,-4.551 3.5,-2.449 5.95,-6.652 5.95,-12.246 0,-7 -5.25,-11.555 -11.9,-13.653 v -0.703 c 5.6,-1.75 8.4,-6.3 10.15,-14.004 1.75,-8.75 3.15,-11.894 4.2,-14.003 h -14 c -1.75,2.109 -2.8,7 -4.55,14.003 -1.05,5.957 -4.55,8.75 -11.91,8.75 h -6.3 z m -35.35,29.753 c 0,-25.546 19.25,-45.847 44.81,-45.847 24.85,-0.352 43.76,20.301 43.76,45.5 0,25.554 -18.91,46.211 -44.47,46.211 -24.85,0 -44.1,-20.657 -44.1,-45.864 z m 103.26,0 c 0,-32.195 -25.9,-57.753 -58.8,-57.753 -32.9,0 -59.15,25.558 -59.15,57.753 0,32.207 26.25,57.414 59.5,57.414 32.55,0 58.45,-25.207 58.45,-57.414"
            style="fill:#100f0d;fill-opacity:1;fill-rule:nonzero;stroke:none"
            id="path36" />
      </g>
   </g>
</svg>