<?xml version="1.0" encoding="UTF-8" standalone="no"?>
<!-- Created with Inkscape (http://www.inkscape.org/) -->

<svg xmlns:dc="http://purl.org/dc/elements/1.1/" xmlns:cc="http://creativecommons.org/ns#" xmlns:rdf="http://www.w3.org/1999/02/22-rdf-syntax-ns#" xmlns:svg="http://www.w3.org/2000/svg" xmlns="http://www.w3.org/2000/svg" xmlns:sodipodi="http://sodipodi.sourceforge.net/DTD/sodipodi-0.dtd" xmlns:inkscape="http://www.inkscape.org/namespaces/inkscape" version="1.1" id="svg3713" viewBox="0 0 968.32001 109.76" sodipodi:docname="brandsafwaylogo.svg" inkscape:version="0.92.4 (5da689c313, 2019-01-14)">
   <metadata id="metadata3719">
      <rdf:RDF>
         <cc:Work rdf:about="">
            <dc:format>image/svg+xml</dc:format>
            <dc:type rdf:resource="http://purl.org/dc/dcmitype/StillImage" />
            <dc:title />
         </cc:Work>
      </rdf:RDF>
   </metadata>
   <defs id="defs3717" />
   <sodipodi:namedview pagecolor="#ffffff" bordercolor="#666666" borderopacity="1" objecttolerance="10" gridtolerance="10" guidetolerance="10" inkscape:pageopacity="0" inkscape:pageshadow="2" inkscape:window-width="1920" inkscape:window-height="1017" id="namedview3715" showgrid="false" inkscape:zoom="1.8227445" inkscape:cx="391.46507" inkscape:cy="95.836248" inkscape:window-x="1912" inkscape:window-y="-8" inkscape:window-maximized="1" inkscape:current-layer="svg3713" />
   <path inkscape:connector-curvature="0" id="path3807" d="m 412.09174,110.09066 c 0,-0.11989 0.84768,-1.66789 1.88378,-3.44 2.1039,-3.59859 5.04845,-8.685258 8.90432,-15.382038 1.41872,-2.464 4.412,-7.648 6.65174,-11.52 4.48231,-7.7489 5.7866,-10.00559 11.96525,-20.70255 2.3072,-3.99441 4.19491,-7.40574 4.19491,-7.58075 0,-0.28688 -3.29123,-6.128864 -9.75584,-17.316704 -10.55648,-18.26933 -18.69379,-32.5085304 -18.93104,-33.1267404 -0.1566,-0.40816001 0.71712,-0.47326001 6.35149,-0.47326001 4.74247,0 6.67216,0.10963 7.04051,0.4 0.27911,0.22000001 2.48698,3.85600001 4.90637,8.08000001 2.41939,4.2240004 8.2921,14.4480004 13.05043,22.7200004 4.75837,8.27201 9.26772,16.11326 10.02077,17.425014 l 1.36915,2.38501 -0.59059,0.97499 c -1.44403,2.38398 -27.86125,48.235728 -27.86125,48.358148 0,0.0753 120.67201,0.13684 268.16001,0.13684 h 268.16 v 4.64 4.64 h -277.76 c -152.768,0 -277.76001,-0.0981 -277.76001,-0.21796 z" style="fill:#f1a901;stroke-width:0.31999999" sodipodi:nodetypes="scssssscscsccccsscccss" />
   <path inkscape:connector-curvature="0" id="path3801" d="M -0.22869335,50.561775 V 16.307851 l 27.91999935,0.006 c 30.116538,0.006 30.289796,0.0147 33.985537,1.70666 3.481219,1.59375 5.802723,4.74684 6.805289,9.24301 0.737818,3.308874 0.730701,11.521024 -0.01238,14.291124 -1.090796,4.06629 -3.140627,6.69326 -5.818435,7.45665 -1.910614,0.54467 -1.959824,0.77075 -0.260778,1.19814 2.23314,0.56173 5.124253,2.19841 6.211271,3.51624 2.079344,2.52085 3.07848,7.6994 2.720928,14.10262 -0.432742,7.74974 -2.55377,12.43694 -6.737344,14.88867 -3.233287,1.89484 -2.727075,1.86619 -35.134077,1.9878 l -29.68001035,0.11134 z M 52.140414,69.355615 c 0.555008,-0.30373 1.347008,-1.09573 1.76,-1.76 1.033632,-1.66253 1.09855,-6.37753 0.110893,-8.05431 -0.891757,-1.51397 -2.099652,-2.32603 -3.90025,-2.62211 -0.846861,-0.13925 -8.919751,-0.26177 -17.939751,-0.27226 l -16.399999,-0.0191 v 6.73275 6.73276 l 17.679999,-0.0928 c 16.032189,-0.0841 17.774052,-0.14422 18.689108,-0.645 z m -3.709437,-25.85149 c 2.620211,-0.49691 3.917994,-2.0064 4.318093,-5.02248 0.414368,-3.12366 -1.096595,-6.21345 -3.478595,-7.11343 -0.593479,-0.22423 -6.461917,-0.34036 -17.200001,-0.34036 H 15.771307 v 6.4 6.4 H 31.24763 c 9.098198,0 16.179824,-0.13342 17.183347,-0.32373 z m 33.44513,40.75297 c -0.112023,-0.29192 -0.189891,-15.69992 -0.173043,-34.24 l 0.03063,-33.709244 22.938806,0.0113 c 12.61635,0.006 24.81081,0.14363 27.09881,0.30537 6.87531,0.48602 11.89987,2.20652 15.40921,5.2764 3.04218,2.66123 4.58463,5.90378 5.20167,10.935024 1.03562,8.44416 -0.56611,14.22247 -5.22285,18.84164 -2.72739,2.70538 -5.26761,4.10861 -9.17109,5.06612 l -2.88151,0.70683 10.25413,13.66866 10.25414,13.66867 -9.68185,-0.01 -9.68185,-0.01 -9.92,-13.26509 -9.92,-13.26508 -9.52,-0.005 -9.520003,-0.005 v 13.28 13.28 h -7.645763 c -6.826045,0 -7.6676,-0.0569 -7.849437,-0.53076 z m 47.437753,-39.26538 c 1.6404,-0.29362 3.55033,-0.82352 4.24429,-1.17755 2.39896,-1.22386 4.16629,-4.88366 3.66044,-7.58007 -0.56577,-3.01579 -2.43792,-4.99331 -5.87768,-6.208494 -2.10964,-0.74529 -2.2788,-0.75328 -18.0496,-0.85158 l -15.920003,-0.0992 v 8.364364 8.36437 l 14.480003,-0.13898 c 11.64897,-0.11181 15.06313,-0.24336 17.46255,-0.67284 z m 30.9611,39.08162 c 0.12473,-0.39298 0.7282,-1.79698 1.34104,-3.12 0.61284,-1.32301 2.94737,-6.43748 5.18783,-11.36548 2.24047,-4.928 6.21112,-13.64 8.82367,-19.36 2.61256,-5.72 7.139,-15.656 10.05876,-22.080004 l 5.30866,-11.68 11.36285,-0.084 11.36284,-0.084 8.84903,19.923974 c 15.9856,35.99228 21.36167,48.16441 21.36167,48.36559 0,0.10911 -4.01384,0.19838 -8.91966,0.19838 h -8.91966 l -2.83041,-6.24259 -2.83041,-6.24259 -18.22968,0.0826 -18.22968,0.0826 -2.70521,6.16 -2.70521,6.16 h -9.2566 -9.25661 z m 54.21635,-25.8171 c 0,-0.42343 -11.43727,-26.63787 -12.06552,-27.65439 -0.28709,-0.464534 0.15896,-1.435634 -7.83866,17.06601 -1.40746,3.256 -3.03546,7.036 -3.61777,8.4 l -1.05876,2.48 h 12.29035 c 7.1828,0 12.29036,-0.12119 12.29036,-0.29162 z m 34.88,-7.70838 V 16.307851 l 13.36,0.01 13.36,0.01 4.46756,6.95054 c 2.45717,3.8228 6.93321,10.766554 9.94677,15.430554 3.01357,4.664 8.54283,13.232 12.28726,19.04 3.74444,5.808 6.99304,10.75551 7.21914,10.99447 0.33535,0.35444 0.38832,-0.67705 0.28756,-5.6 -0.0679,-3.31905 -0.18203,-15.21456 -0.25355,-26.43456 l -0.13004,-20.400004 h 7.80766 7.80764 v 34.240004 34.24 l -13.52,-0.007 -13.52,-0.007 -16.91851,-26.31329 -16.91851,-26.3133 0.1887,26.32 0.1887,26.32 h -7.83019 l -7.83019,-10e-6 z m 90.88,0.003 V 16.282471 l 28.72,0.11028 c 25.56592,0.0982 28.96602,0.16942 30.96,0.64871 6.81597,1.63832 11.19783,5.97662 12.94784,12.81919 1.13309,4.430334 1.43264,8.785714 1.43386,20.847524 0,15.42191 -0.488,19.69816 -2.82163,24.64757 -1.19872,2.54239 -4.06493,5.84496 -6.11568,7.04679 -0.73674,0.43176 -2.47914,1.10439 -3.87197,1.49475 -2.51747,0.70556 -2.70557,0.71036 -31.89242,0.81581 l -29.36,0.10606 z m 51.90816,17.57429 c 2.89786,-1.13574 4.26448,-2.88919 5.09482,-6.53693 0.61846,-2.71709 0.61171,-18.41236 -0.009,-21.21136 -0.68624,-3.09385 -2.07232,-5.14573 -4.21546,-6.24029 -2.57417,-1.31473 -6.03945,-1.53695 -22.3784,-1.43511 l -13.92,0.0868 -0.0827,18 -0.0827,18 h 16.95085 c 16.38973,0 17.00681,-0.022 18.64265,-0.66307 z" style="fill:#88292a;stroke-width:0.31999999" sodipodi:nodetypes="cccssccssssccccsssscccsccsscscccsscsccscccscccccccccccscccsccccccscccsccscccsssccccccccccscsccsscccccccccscccccccccccccccccccccccsccccccccccscc" />
   <path inkscape:connector-curvature="0" id="path3797" d="m 499.84046,84.526259 c -6.80468,-0.56173 -10.99562,-2.43672 -13.33258,-5.96488 -1.80262,-2.72148 -2.31965,-5.04048 -2.49869,-11.20725 l -0.16022,-5.52 h 8.47587 8.47584 l 0.17434,1.9224 c 0.24172,2.66612 1.07027,4.15266 2.81308,5.04719 l 1.42148,0.72959 13.92,-0.0896 c 13.30195,-0.0856 13.96972,-0.11833 15.04,-0.73691 2.98889,-1.72747 3.50745,-7.84812 0.8144,-9.61266 -1.92564,-1.26173 -4.03072,-1.45978 -18.4144,-1.73247 -7.656,-0.14515 -14.64,-0.35767 -15.52,-0.47227 -3.8578,-0.50241 -6.17879,-0.89822 -7.52,-1.28242 -5.06352,-1.45051 -7.60266,-4.00553 -8.82756,-8.88278 -0.67709,-2.69607 -0.97494,-13.21552 -0.49049,-17.32312 1.03056,-8.73826 5.16809,-12.75605 14.58685,-14.16462 2.64009,-0.39483 6.39827,-0.45998 21.1312,-0.36633 17.34281,0.11025 18.00246,0.13679 20.48,0.82401 8.34675,2.31521 11.36,6.9535 11.36,17.48649 v 4.01349 h -8.48 -8.48 v -1.68 c 0,-2.40427 -0.77466,-3.74759 -2.71949,-4.72 l -1.6,-0.8 h -12.64 c -12.55917,0 -12.6496,0.005 -14.14077,0.73924 -2.0728,1.021 -2.97437,2.85018 -2.73046,5.53986 0.41628,4.5912 1.97948,5.07141 16.55123,5.08463 24.76224,0.0224 31.16441,1.52806 34.39264,8.0882 1.94841,3.95948 2.73702,10.95755 2.10333,18.66531 -1.0081,12.26189 -4.96912,15.53046 -19.92279,16.43997 -6.07389,0.36942 -29.69286,0.35214 -34.2623,-0.0251 z m 59.7182,-0.85213 c 0.13885,-0.22691 11.94048,-26.90098 17.09581,-38.64 1.31399,-2.992 3.21098,-7.312 4.21555,-9.6 1.00458,-2.288 3.39917,-7.7258 5.32135,-12.08401 l 3.49485,-7.924 11.1784,0.084 11.17843,0.084 10.16093,22.72 c 5.58851,12.496 11.71027,26.176 13.60387,30.4 1.89363,4.224 4.19641,9.372 5.11734,11.44 l 1.67443,3.76 -9.49504,-0.002 -9.495,-0.002 -1.98599,-4.55846 c -1.09232,-2.50716 -2.2752,-5.24246 -2.62864,-6.07846 l -0.64262,-1.52 h -17.25219 c -13.42733,0 -17.31917,0.0887 -17.55424,0.4 -0.16615,0.22 -1.36394,2.956 -2.6618,6.08 l -2.35971,5.68 h -9.55629 c -5.25596,0 -9.4902,-0.108 -9.40944,-0.24 z m 52.2258,-26.88 c -1.46736,-3.84731 -10.93684,-25.28119 -11.09376,-25.11038 -0.33652,0.36634 -10.52112,24.82997 -10.52112,25.27196 0,0.31011 2.4192,0.39842 10.91424,0.39842 10.26252,0 10.90147,-0.0334 10.70064,-0.56 z m 40.14512,-7.12 v -34.24 h 29.12 29.12 v 8.15765 8.15765 l -20.56,0.0823 -20.56,0.0824 v 6.4 6.4 l 19.6,0.0825 19.6,0.0825 v 7.83508 7.83508 l -19.6,0.0825 -19.6,0.0825 -0.084,11.6 -0.084,11.6 h -8.47603 -8.476 z m 84.64678,33.84 c -0.11622,-0.34929 -7.88646,-29.8059 -15.08851,-57.2 -1.31875,-5.016 -2.52618,-9.51838 -2.68317,-10.00528 l -0.2855,-0.88529 8.37949,0.0853 8.37948,0.0853 2.6354,11.2 c 7.50006,31.87428 9.18556,38.88 9.35411,38.88 0.15641,0 5.80819,-19.77162 12.48601,-43.68 l 1.78759,-6.4 h 7.964 7.96403 l 4.10016,14.56 c 2.2551,8.008 5.42611,19.276 7.04669,25.04 1.62057,5.764 3.03465,10.48 3.1424,10.48 0.10777,0 2.83318,-11.196 6.05651,-24.88 3.22333,-13.684 5.92624,-24.988 6.00643,-25.12 0.24288,-0.39961 16.4281,-0.29434 16.4281,0.10685 0,0.31597 -16.37418,62.53804 -17.48762,66.45315 l -0.47779,1.68 -9.81731,-5e-5 -9.81728,-5e-5 -1.21443,-4.23995 c -2.24864,-7.85055 -10.50404,-36.53951 -11.1568,-38.77188 -0.38458,-1.31512 -0.7442,-2.05437 -0.88698,-1.82331 -0.13213,0.21374 -3.10704,10.38735 -6.61101,22.60802 l -6.37078,22.21939 -9.85005,0.004 c -7.59853,0.003 -9.88048,-0.0875 -9.98317,-0.39608 z m 80.65271,-0.3152 c 0.12412,-0.39864 2.42096,-5.6928 5.10406,-11.7648 16.11037,-36.45858 19.67552,-44.55029 22.66128,-51.43345 l 1.97517,-4.55344 11.2,10e-4 11.2,0.001 3.43549,7.75227 c 1.88953,4.26374 5.18006,11.64026 7.31229,16.39226 2.13222,4.752 5.96899,13.32 8.52611,19.04 2.55715,5.72 5.94208,13.28 7.52208,16.8 1.58,3.52 3.07609,6.87015 3.32467,7.44478 l 0.45194,1.04477 -9.51367,-0.0848 -9.51363,-0.0848 -2.61098,-5.92 -2.61097,-5.92 -17.45597,-0.0827 -17.45594,-0.0827 -0.348,1.04272 c -0.19139,0.57349 -1.27539,3.27472 -2.40893,6.00272 l -2.06096,4.96 -9.47984,0.0848 -9.47987,0.0848 0.22567,-0.7248 z m 51.98051,-26.04026 c 0,-0.61443 -11.02173,-25.70457 -11.20019,-25.49638 -0.31866,0.37177 -10.55981,24.96283 -10.55981,25.35623 0,0.22757 3.50262,0.33561 10.88,0.33561 5.984,0 10.88,-0.088 10.88,-0.19546 z m 48.96,14.9616 v -11.79386 l -13.15632,-19.00614 c -7.236,-10.45338 -14.22886,-20.55414 -15.53971,-22.44614 l -2.38333,-3.44 10.33968,0.0141 10.33968,0.0141 9.28,13.89377 c 5.104,7.64158 9.38083,13.89924 9.50406,13.90591 0.12324,0.007 4.42429,-6.25186 9.55792,-13.90786 l 9.33386,-13.92 h 10.20208 c 5.61114,0 10.20208,0.0684 10.20208,0.15206 0,0.0836 -6.91059,10.12764 -15.3569,22.32 l -15.35689,22.16794 -0.003,11.92 -0.003,11.92 h -8.48 -8.48 v -11.79386 z m 31.28928,6.91386 -0.0893,-4.24 -1.52,-0.0975 c -1.25898,-0.0808 -1.52,-0.20443 -1.52,-0.72 0,-0.58342 0.25088,-0.62247 4,-0.62247 3.78666,0 4,0.0341 4,0.64 0,0.54519 -0.21334,0.64 -1.44,0.64 h -1.44 v 4.32 4.32 h -0.95072 -0.95069 z m 6.15072,-0.72 v -4.96 h 1.70528 1.70528 l 0.90016,3.28 c 0.4951,1.804 0.99059,3.38368 1.10112,3.5104 0.11053,0.12672 0.68755,-1.34928 1.28224,-3.28 l 1.08131,-3.5104 h 1.71229 1.71232 v 4.96 4.96 h -0.96 -0.96 v -4.224 c 0,-2.32344 -0.12157,-4.08722 -0.27018,-3.92 -0.1486,0.1672 -0.82188,2.068 -1.49622,4.224 -1.16378,3.72104 -1.26915,3.92 -2.07552,3.92 -0.81046,0 -0.90998,-0.19497 -2.16438,-4.24 l -1.31488,-4.24 -0.0195,4.24 -0.0195,4.24 h -0.96 -0.96 v -4.96 z" style="fill:#000004;stroke-width:0.31999999" />
</svg>