<?xml version="1.0" encoding="UTF-8"?>
<svg id="Layer_1" data-name="Layer 1" xmlns="http://www.w3.org/2000/svg" viewBox="0 0 161.3 52.84">
  <defs>
    <style>
      .cls-1 {
        fill: none;
        stroke: #231f20;
        stroke-linecap: round;
        stroke-linejoin: round;
        stroke-width: 2.82px;
      }

      .cls-2 {
        fill: #000;
      }

      .cls-2, .cls-3 {
        stroke-width: 0px;
      }

      .cls-4 {
        fill: #fff;
        font-family: ProximaNova-Bold, 'Proxima Nova';
        font-size: 21px;
        font-weight: 700;
      }

      .cls-3 {
        fill: #231f20;
      }
    </style>
  </defs>
  <path class="cls-3" d="M39.09,11.88l-16.14-4.63L6.81,11.88s-4.27,25.73,16.14,33.71c20.41-7.98,16.14-33.71,16.14-33.71Z"/>
  <polygon class="cls-2" points="67.71 33.03 69.7 39.15 76.14 39.15 70.93 42.93 72.92 49.05 67.71 45.27 62.5 49.05 64.49 42.93 59.28 39.15 65.72 39.15 67.71 33.03"/>
  <polygon class="cls-2" points="89 33.03 90.99 39.15 97.43 39.15 92.22 42.93 94.21 49.05 89 45.27 83.79 49.05 85.78 42.93 80.58 39.15 87.01 39.15 89 33.03"/>
  <polygon class="cls-2" points="110.29 33.03 112.28 39.15 118.72 39.15 113.51 42.93 115.5 49.05 110.29 45.27 105.09 49.05 107.07 42.93 101.87 39.15 108.3 39.15 110.29 33.03"/>
  <polygon class="cls-2" points="131.58 33.03 133.57 39.15 140.01 39.15 134.8 42.93 136.79 49.05 131.58 45.27 126.38 49.05 128.37 42.93 123.16 39.15 129.6 39.15 131.58 33.03"/>
  <polygon class="cls-2" points="152.88 33.03 154.87 39.15 161.3 39.15 156.09 42.93 158.08 49.05 152.88 45.27 147.67 49.05 149.66 42.93 144.45 39.15 150.89 39.15 152.88 33.03"/>
  <text class="cls-4" transform="translate(10.27 29.72)"><tspan x="0" y="0">S6</tspan></text>
  <path class="cls-1" d="M44.01,7.45L22.95,1.41,1.89,7.45S-3.68,41.02,22.95,51.43C49.58,41.02,44.01,7.45,44.01,7.45Z"/>
</svg>