<?xml version="1.0" encoding="UTF-8"?>
<svg id="Layer_1" data-name="Layer 1" xmlns="http://www.w3.org/2000/svg" version="1.1" viewBox="0 0 45.9 52.8">
  <defs>
    <style>
      .cls-1 {
        fill: none;
        stroke: #f2a900;
        stroke-linecap: round;
        stroke-linejoin: round;
        stroke-width: 2.8px;
      }

      .cls-2 {
        fill: #f2a900;
        stroke-width: 0px;
      }
    </style>
  </defs>
  <path class="cls-1" d="M44,7.5L23,1.4,1.9,7.5S-3.7,41,23,51.4C49.6,41,44,7.5,44,7.5Z"/>
  <path class="cls-2" d="M23,7.3L6.8,11.9s-4.3,25.7,16.1,33.7c20.4-8,16.1-33.7,16.1-33.7l-16.1-4.6ZM16.8,30c-2.7,0-4.6-.9-5.9-2.2l1.6-2.3c1,1,2.5,1.9,4.5,1.9s2.4-.8,2.4-1.6-1.2-1.4-2.8-1.8c-2.3-.5-5.2-1.2-5.2-4.3s2-4.2,5.3-4.2,4.1.7,5.5,2l-1.7,2.2c-1.1-1-2.6-1.5-4-1.5s-2.1.6-2.1,1.4,1.2,1.2,2.8,1.6c2.3.5,5.2,1.2,5.2,4.3s-1.8,4.5-5.6,4.5ZM29,30c-2.6,0-4.5-1-5.5-2.2l1.6-2c1,1,2.5,1.6,3.9,1.6s2.6-.7,2.6-1.8-.9-1.7-2.8-1.7-1.5,0-1.7,0v-2.6c.3,0,1.2,0,1.7,0,1.6,0,2.6-.5,2.6-1.6s-1.1-1.7-2.6-1.7-2.6.5-3.6,1.5l-1.5-1.8c1.1-1.3,2.9-2.2,5.4-2.2s5.3,1.5,5.3,3.8-1.5,2.9-3.1,3.2c1.4.1,3.3,1.3,3.3,3.4s-2.2,4.1-5.5,4.1Z"/>
</svg>