<?xml version="1.0" encoding="UTF-8"?>
<svg id="Layer_1" data-name="Layer 1" xmlns="http://www.w3.org/2000/svg" version="1.1" viewBox="0 0 34.1 39.5">
  <defs>
    <style>
      .cls-1 {
        fill: #f2a900;
        stroke-width: 0px;
      }

      .cls-2 {
        fill: none;
        stroke: #f2a900;
        stroke-miterlimit: 10;
        stroke-width: 1.1px;
      }

      .cls-3 {
        isolation: isolate;
      }
    </style>
  </defs>
  <g class="cls-3">
    <g class="cls-3">
      <path class="cls-1" d="M6.6,18.8c1,1,2.5,1.9,4.5,1.9s2.4-.8,2.4-1.6-1.2-1.4-2.8-1.8c-2.3-.5-5.2-1.2-5.2-4.3s2-4.2,5.3-4.2,4.1.7,5.5,2l-1.7,2.2c-1.1-1-2.6-1.5-4-1.5s-2.1.6-2.1,1.4,1.2,1.2,2.8,1.6c2.3.5,5.2,1.2,5.2,4.3s-1.8,4.5-5.6,4.5-4.6-.9-5.9-2.2l1.6-2.3Z"/>
      <path class="cls-1" d="M24.3,23v-2.9h-6.7v-2.4l5.6-8.8h4.1v8.5h1.8v2.6h-1.8v2.9h-3ZM24.3,11.6l-3.8,5.8h3.8v-5.8Z"/>
    </g>
  </g>
  <path class="cls-2" d="M33.2,5.2L17,.5.9,5.2S-3.4,30.9,17,38.9C37.4,30.9,33.2,5.2,33.2,5.2Z"/>
</svg>