<?xml version="1.0" encoding="UTF-8"?>
<svg id="Layer_1" data-name="Layer 1" xmlns="http://www.w3.org/2000/svg" version="1.1" viewBox="0 0 45.9 52.8">
  <defs>
    <style>
      .cls-1 {
        fill: none;
        stroke: #f2a900;
        stroke-linecap: round;
        stroke-linejoin: round;
        stroke-width: 2.8px;
      }

      .cls-2 {
        fill: #f2a900;
        stroke-width: 0px;
      }
    </style>
  </defs>
  <path class="cls-1" d="M44,7.5L23,1.4,1.9,7.5S-3.7,41,23,51.4C49.6,41,44,7.5,44,7.5Z"/>
  <path class="cls-2" d="M23,7.3L6.8,11.9s-4.3,25.7,16.1,33.7c20.4-8,16.1-33.7,16.1-33.7l-16.1-4.6ZM16.7,30c-2.7,0-4.6-.9-5.9-2.2l1.6-2.3c1,1,2.5,1.9,4.5,1.9s2.4-.8,2.4-1.6-1.2-1.4-2.8-1.8c-2.3-.5-5.2-1.2-5.2-4.3s2-4.2,5.3-4.2,4.1.7,5.5,2l-1.7,2.2c-1.1-1-2.6-1.5-4-1.5s-2.1.6-2.1,1.4,1.2,1.2,2.8,1.6c2.3.5,5.2,1.2,5.2,4.3s-1.8,4.5-5.6,4.5ZM34.5,29.7h-10.5v-2.4c5.7-4.2,7.4-5.7,7.4-7.4s-1.1-1.8-2.3-1.8-2.8.6-3.7,1.6l-1.7-2c1.4-1.6,3.4-2.3,5.4-2.3,3,0,5.4,1.7,5.4,4.5s-2,4.5-5.7,7.1h5.8v2.6Z"/>
</svg>